<mxfile host="app.diagrams.net" modified="2023-03-30T12:33:27.149Z" agent="Mozilla/5.0 (Windows NT 10.0; Win64; x64) AppleWebKit/537.36 (KHTML, like Gecko) Chrome/111.0.0.0 Safari/537.36" etag="XAdevCGMKoKfc9ejoFN7" version="21.1.2" type="github">
  <diagram name="Страница 1" id="e6zsdOsnhXegiTWdknKY">
    <mxGraphModel dx="1050" dy="549" grid="1" gridSize="10" guides="1" tooltips="1" connect="1" arrows="1" fold="1" page="1" pageScale="1" pageWidth="827" pageHeight="1169" math="0" shadow="0">
      <root>
        <mxCell id="0" />
        <mxCell id="1" parent="0" />
        <mxCell id="-NgcCCmMqqw3pilAwKS0-8" style="edgeStyle=orthogonalEdgeStyle;rounded=0;orthogonalLoop=1;jettySize=auto;html=1;exitX=0.5;exitY=1;exitDx=0;exitDy=0;entryX=0.5;entryY=0;entryDx=0;entryDy=0;" edge="1" parent="1" source="-NgcCCmMqqw3pilAwKS0-2" target="-NgcCCmMqqw3pilAwKS0-4">
          <mxGeometry relative="1" as="geometry" />
        </mxCell>
        <mxCell id="-NgcCCmMqqw3pilAwKS0-2" value="Начало" style="ellipse;whiteSpace=wrap;html=1;" vertex="1" parent="1">
          <mxGeometry x="300" y="40" width="120" height="40" as="geometry" />
        </mxCell>
        <mxCell id="-NgcCCmMqqw3pilAwKS0-6" style="edgeStyle=orthogonalEdgeStyle;rounded=0;orthogonalLoop=1;jettySize=auto;html=1;exitX=1;exitY=0.5;exitDx=0;exitDy=0;entryX=0.5;entryY=0;entryDx=0;entryDy=0;" edge="1" parent="1" source="-NgcCCmMqqw3pilAwKS0-3" target="-NgcCCmMqqw3pilAwKS0-5">
          <mxGeometry relative="1" as="geometry" />
        </mxCell>
        <mxCell id="-NgcCCmMqqw3pilAwKS0-12" style="edgeStyle=orthogonalEdgeStyle;rounded=0;orthogonalLoop=1;jettySize=auto;html=1;exitX=0;exitY=0.5;exitDx=0;exitDy=0;entryX=0.5;entryY=0;entryDx=0;entryDy=0;" edge="1" parent="1" source="-NgcCCmMqqw3pilAwKS0-3" target="-NgcCCmMqqw3pilAwKS0-11">
          <mxGeometry relative="1" as="geometry" />
        </mxCell>
        <mxCell id="-NgcCCmMqqw3pilAwKS0-3" value="exp содержит скобки?" style="rhombus;whiteSpace=wrap;html=1;" vertex="1" parent="1">
          <mxGeometry x="305" y="200" width="110" height="80" as="geometry" />
        </mxCell>
        <mxCell id="-NgcCCmMqqw3pilAwKS0-9" style="edgeStyle=orthogonalEdgeStyle;rounded=0;orthogonalLoop=1;jettySize=auto;html=1;exitX=0.5;exitY=1;exitDx=0;exitDy=0;entryX=0.5;entryY=0;entryDx=0;entryDy=0;" edge="1" parent="1" source="-NgcCCmMqqw3pilAwKS0-4" target="-NgcCCmMqqw3pilAwKS0-3">
          <mxGeometry relative="1" as="geometry" />
        </mxCell>
        <mxCell id="-NgcCCmMqqw3pilAwKS0-4" value="Ввод выражения &lt;br&gt;exp" style="rounded=0;whiteSpace=wrap;html=1;" vertex="1" parent="1">
          <mxGeometry x="300" y="110" width="120" height="60" as="geometry" />
        </mxCell>
        <mxCell id="-NgcCCmMqqw3pilAwKS0-7" style="edgeStyle=orthogonalEdgeStyle;rounded=0;orthogonalLoop=1;jettySize=auto;html=1;exitX=1;exitY=0.5;exitDx=0;exitDy=0;entryX=1;entryY=0.5;entryDx=0;entryDy=0;" edge="1" parent="1" source="-NgcCCmMqqw3pilAwKS0-5" target="-NgcCCmMqqw3pilAwKS0-4">
          <mxGeometry relative="1" as="geometry" />
        </mxCell>
        <mxCell id="-NgcCCmMqqw3pilAwKS0-5" value="newExp = exp.Выражение в скобках" style="rounded=0;whiteSpace=wrap;html=1;" vertex="1" parent="1">
          <mxGeometry x="415" y="290" width="120" height="60" as="geometry" />
        </mxCell>
        <mxCell id="-NgcCCmMqqw3pilAwKS0-10" value="Да" style="text;html=1;strokeColor=none;fillColor=none;align=center;verticalAlign=middle;whiteSpace=wrap;rounded=0;" vertex="1" parent="1">
          <mxGeometry x="415" y="210" width="60" height="30" as="geometry" />
        </mxCell>
        <mxCell id="-NgcCCmMqqw3pilAwKS0-16" style="edgeStyle=orthogonalEdgeStyle;rounded=0;orthogonalLoop=1;jettySize=auto;html=1;exitX=0.5;exitY=1;exitDx=0;exitDy=0;entryX=0.5;entryY=0;entryDx=0;entryDy=0;" edge="1" parent="1" source="-NgcCCmMqqw3pilAwKS0-11" target="-NgcCCmMqqw3pilAwKS0-15">
          <mxGeometry relative="1" as="geometry" />
        </mxCell>
        <mxCell id="-NgcCCmMqqw3pilAwKS0-11" value="Посчитать значение входящих выражений" style="rounded=0;whiteSpace=wrap;html=1;" vertex="1" parent="1">
          <mxGeometry x="185" y="290" width="120" height="60" as="geometry" />
        </mxCell>
        <mxCell id="-NgcCCmMqqw3pilAwKS0-13" value="Нет" style="text;html=1;strokeColor=none;fillColor=none;align=center;verticalAlign=middle;whiteSpace=wrap;rounded=0;" vertex="1" parent="1">
          <mxGeometry x="245" y="210" width="60" height="30" as="geometry" />
        </mxCell>
        <mxCell id="-NgcCCmMqqw3pilAwKS0-14" value="Конец" style="ellipse;whiteSpace=wrap;html=1;" vertex="1" parent="1">
          <mxGeometry x="300" y="480" width="120" height="30" as="geometry" />
        </mxCell>
        <mxCell id="-NgcCCmMqqw3pilAwKS0-17" style="edgeStyle=orthogonalEdgeStyle;rounded=0;orthogonalLoop=1;jettySize=auto;html=1;entryX=0.5;entryY=0;entryDx=0;entryDy=0;" edge="1" parent="1" source="-NgcCCmMqqw3pilAwKS0-15" target="-NgcCCmMqqw3pilAwKS0-14">
          <mxGeometry relative="1" as="geometry" />
        </mxCell>
        <mxCell id="-NgcCCmMqqw3pilAwKS0-15" value="Вывод результата" style="shape=parallelogram;perimeter=parallelogramPerimeter;whiteSpace=wrap;html=1;fixedSize=1;" vertex="1" parent="1">
          <mxGeometry x="185" y="380" width="120" height="60" as="geometry" />
        </mxCell>
      </root>
    </mxGraphModel>
  </diagram>
</mxfile>
